<svg xmlns="http://www.w3.org/2000/svg" xmlns:xlink="http://www.w3.org/1999/xlink" width="100" height="100"><defs><path id="a" d="M0 0h1800v3493H0z"/></defs><g fill="none" fill-rule="evenodd"><g transform="translate(-1277 -2193)"><use xlink:href="#a" fill="#FFF"/><path stroke="#979797" d="M.5.5h1799v3492H.5z"/></g><path fill="#009EE2" d="M20.687 12.847c3.463-1.554 5.947-.849 7.391.91 1.448 1.76 3.377 5.184 8.324 10.212 4.95 5.027 2.485 7.686 1.384 8.748-1.098 1.063-6.257 4.055-6.558 8.022-.301 3.967 5.872 11.09 10.436 15.458s14.865 8.985 18.763 9.23c3.897.245 5.047-4.124 7.395-7.914 2.35-3.792 5.808-2.234 6.694-1.625.885.61 7.348 4.28 12.25 6.518 4.902 2.238 4.464 5.075 4.125 6.76-.339 1.686-1.84 6.343-3.75 8.819-1.91 2.478-4.04 3.389-12.328 4.381-11.186 1.34-25.778-3.222-38.909-12.988-14.211-10.566-22.076-24.66-23.998-36.228-1.06-6.367-1.33-12.243 1.864-15.229 3.19-2.987 6.917-5.074 6.917-5.074"/><path stroke="#1D3175" d="M20.687 12.847c3.463-1.554 5.947-.849 7.391.91 1.448 1.76 3.377 5.184 8.324 10.212 4.95 5.027 2.485 7.686 1.384 8.748-1.098 1.063-6.257 4.055-6.558 8.022-.301 3.967 5.872 11.09 10.436 15.458s14.865 8.985 18.763 9.23c3.898.247 5.047-4.124 7.395-7.914 2.35-3.792 5.808-2.234 6.694-1.625.885.61 7.348 4.28 12.25 6.518 4.902 2.238 4.464 5.075 4.125 6.76-.339 1.686-1.84 6.343-3.75 8.819-1.91 2.478-4.04 3.389-12.328 4.381-11.186 1.34-25.778-3.222-38.909-12.988-14.211-10.566-22.076-24.66-23.998-36.228-1.06-6.367-1.33-12.243 1.864-15.229 3.19-2.987 6.917-5.074 6.917-5.074z"/></g></svg>